# xmcd CD database file
#
# Track frame offsets:
#	150
#	17510
#	34415
#	46025
#	58025
#	75145
#	90240
#	103675
#	119292
#	136167
#	157092
#	172747
#
# Disc length: 2533 seconds
#
# Revision: 2
# Processed by: cddbd v1.5.2PL0 Copyright (c) Steve Scherf et al.
# Submitted via: CDex 1.60beta1
#
DISCID=8109e30c
DTITLE=Dale Ann Bradley - East Kentucky Morning
DYEAR=1997
DGENRE=Bluegrass
TTITLE0=East Kentucky Morning
TTITLE1=I Want it Back
TTITLE2=Last Drink Of Wine
TTITLE3=The Day I Lose My Mind
TTITLE4=Grandma's Gift
TTITLE5=Weakness In Life
TTITLE6=In My Mind
TTITLE7=My Conscience Is Clear Tonight
TTITLE8=Will You Think Of me
TTITLE9=I Still Havn't Found What I'm Looking For
TTITLE10=You Are Here
TTITLE11=The First Mistake
EXTD=Bluegrass\nProduced By: Sonny Osborne YEAR: 1997
EXTT0=
EXTT1=
EXTT2=
EXTT3=
EXTT4=
EXTT5=
EXTT6=
EXTT7=
EXTT8=
EXTT9=
EXTT10=
EXTT11=
PLAYORDER=
